<?xml version="1.0" encoding="utf-8"?>
<!-- Generator: Adobe Illustrator 27.3.1, SVG Export Plug-In . SVG Version: 6.00 Build 0)  -->
<svg version="1.1" id="Layer_1" xmlns="http://www.w3.org/2000/svg" xmlns:xlink="http://www.w3.org/1999/xlink" x="0px" y="0px"
	 viewBox="0 0 500 500" style="enable-background:new 0 0 500 500;" xml:space="preserve">
<style type="text/css">
	.st0{fill-rule:evenodd;clip-rule:evenodd;fill:url(#SVGID_1_);}
	.st1{fill-rule:evenodd;clip-rule:evenodd;fill:url(#SVGID_00000157994745489824454020000004898656461561017276_);}
	.st2{fill-rule:evenodd;clip-rule:evenodd;fill:url(#SVGID_00000100372261526063889280000010934241430916657572_);}
	.st3{fill-rule:evenodd;clip-rule:evenodd;fill:url(#SVGID_00000005264587423404594480000010905710002035269262_);}
	.st4{fill-rule:evenodd;clip-rule:evenodd;fill:url(#SVGID_00000127740490566167015510000007222253517670755767_);}
	.st5{fill-rule:evenodd;clip-rule:evenodd;fill:url(#SVGID_00000075874323537161006670000013275681801998114196_);}
	.st6{fill-rule:evenodd;clip-rule:evenodd;fill:url(#SVGID_00000155857327118746780810000015489155195453583789_);}
	.st7{fill-rule:evenodd;clip-rule:evenodd;fill:url(#SVGID_00000157277418555374746490000004020142701304294815_);}
	.st8{fill-rule:evenodd;clip-rule:evenodd;fill:url(#SVGID_00000004511927793041694770000001655790084338737555_);}
</style>
<g>
	<g>
		<radialGradient id="SVGID_1_" cx="-202.8788" cy="-198.38" r="875.6547" gradientUnits="userSpaceOnUse">
			<stop  offset="0" style="stop-color:#FFFFFF"/>
			<stop  offset="0.5" style="stop-color:#33C1D1"/>
			<stop  offset="1" style="stop-color:#522E8F"/>
		</radialGradient>
		<path class="st0" d="M287.8,283.2c-39.3,29.7-83,80.9-133.1,94.8c8.4-11.1,13.9-22.9,15.6-35.7c-32.5,11.4-70.3,3.3-93.1-11.3
			C114.8,406.9,171.8,472.6,250,500c142.1-49.7,213.9-225.7,227.2-359.3c-24-8.1-44.4-21.9-63.2-37.7
			C499.3,318.5,257,401.5,287.8,283.2z"/>
		
			<radialGradient id="SVGID_00000066505202553069554380000017533341693589858484_" cx="554.5725" cy="-132.3816" r="612.0978" gradientUnits="userSpaceOnUse">
			<stop  offset="0" style="stop-color:#FFFFFF"/>
			<stop  offset="0.5" style="stop-color:#33C1D1"/>
			<stop  offset="1" style="stop-color:#522E8F"/>
		</radialGradient>
		<path style="fill-rule:evenodd;clip-rule:evenodd;fill:url(#SVGID_00000066505202553069554380000017533341693589858484_);" d="
			M287.8,283.2c-47.1,87.6-8.6,166,72.1,141.7c70.3-77.2,108-191,117.3-284.2c-24-8.1-44.4-21.9-63.2-37.7
			C499.3,318.5,257,401.5,287.8,283.2z"/>
		
			<radialGradient id="SVGID_00000011727061805905390910000012900803829421757582_" cx="-177.791" cy="392.5843" r="379.5794" gradientUnits="userSpaceOnUse">
			<stop  offset="0" style="stop-color:#FFFFFF"/>
			<stop  offset="0.5" style="stop-color:#33C1D1"/>
			<stop  offset="1" style="stop-color:#522E8F"/>
		</radialGradient>
		<path style="fill-rule:evenodd;clip-rule:evenodd;fill:url(#SVGID_00000011727061805905390910000012900803829421757582_);" d="
			M77.2,331.1c3.7,7.5,7.6,15,11.7,22.2c21.2,9.8,50,14.4,76.2,7.3c2.6-5.8,4.4-11.9,5.2-18.2C137.9,353.8,100.1,345.7,77.2,331.1z"
			/>
		
			<radialGradient id="SVGID_00000024682999831394222900000012670569987570741684_" cx="-538.8856" cy="451.0728" r="855.0499" gradientUnits="userSpaceOnUse">
			<stop  offset="0" style="stop-color:#FFFFFF"/>
			<stop  offset="0.5" style="stop-color:#33C1D1"/>
			<stop  offset="1" style="stop-color:#522E8F"/>
		</radialGradient>
		<path style="fill-rule:evenodd;clip-rule:evenodd;fill:url(#SVGID_00000024682999831394222900000012670569987570741684_);" d="
			M173.9,400.4c46.8-22.7,80.6-80.9,114-117.2c-31.7,24-66.3,61.9-104.8,83C182.9,377.9,179.6,389.3,173.9,400.4z"/>
	</g>
	<g>
		
			<radialGradient id="SVGID_00000098194798728308104330000003989016870709373369_" cx="-346.996" cy="-494.9895" r="1422.8893" gradientUnits="userSpaceOnUse">
			<stop  offset="0" style="stop-color:#FFFFFF"/>
			<stop  offset="0.5" style="stop-color:#33C1D1"/>
			<stop  offset="1" style="stop-color:#522E8F"/>
		</radialGradient>
		<path style="fill-rule:evenodd;clip-rule:evenodd;fill:url(#SVGID_00000098194798728308104330000003989016870709373369_);" d="
			M250.9,255.1c-63.9,17.3-120.1,50.1-175-1c17.5,0.9,32.1-2.7,44.6-9.6C64.1,193.8,66.4,131.2,106,85c-24.4,23-50.4,44.6-83.2,55.7
			c6,60,23.8,128.6,54.5,190.3c22.9,14.6,60.7,22.7,93.1,11.3c-1.7,12.8-7.3,24.6-15.6,35.7c50.1-14,93.8-65.1,133.1-94.8
			c43.7-33.1,86.8-39.8,102.8-2.2C393.6,220.1,317.1,237.2,250.9,255.1z"/>
		
			<radialGradient id="SVGID_00000178173383514659246330000007778910307595542151_" cx="-757.8548" cy="463.0881" r="1196.8553" gradientUnits="userSpaceOnUse">
			<stop  offset="0" style="stop-color:#FFFFFF"/>
			<stop  offset="0.5" style="stop-color:#33C1D1"/>
			<stop  offset="1" style="stop-color:#522E8F"/>
		</radialGradient>
		<path style="fill-rule:evenodd;clip-rule:evenodd;fill:url(#SVGID_00000178173383514659246330000007778910307595542151_);" d="
			M250.9,255.1c-52.4,14.2-99.6,38.8-145.3,19c-9.4,5.1-19.7,8.4-30.9,9.7c59.5,45.8,112.4,7.8,174.3-15.4
			c64.3-24.1,136.9-42.6,141.6,12.7C393.6,220.1,317.1,237.2,250.9,255.1z"/>
		
			<radialGradient id="SVGID_00000018216900070031090560000006954194515642909315_" cx="106.2679" cy="-140.0509" r="532.5015" gradientUnits="userSpaceOnUse">
			<stop  offset="0" style="stop-color:#FFFFFF"/>
			<stop  offset="0.5" style="stop-color:#33C1D1"/>
			<stop  offset="1" style="stop-color:#522E8F"/>
		</radialGradient>
		<path style="fill-rule:evenodd;clip-rule:evenodd;fill:url(#SVGID_00000018216900070031090560000006954194515642909315_);" d="
			M106,85c-13.1,12.4-26.7,24.3-41.6,34.5C52.6,162.8,62.7,209.8,101,252c7-1.7,13.5-4.2,19.5-7.5C64.1,193.8,66.4,131.2,106,85z"/>
	</g>
	<g>
		
			<radialGradient id="SVGID_00000044897811374006955000000017407455443287237012_" cx="-57.0014" cy="-197.0011" r="976.8625" gradientUnits="userSpaceOnUse">
			<stop  offset="0" style="stop-color:#FFFFFF"/>
			<stop  offset="0.5" style="stop-color:#33C1D1"/>
			<stop  offset="1" style="stop-color:#522E8F"/>
		</radialGradient>
		<path style="fill-rule:evenodd;clip-rule:evenodd;fill:url(#SVGID_00000044897811374006955000000017407455443287237012_);" d="
			M367.5,222.4c1.8-46-94.8-34.1-114.7-70.5c-5.4,19.3-0.6,34.3,12.5,45.8c-144.7,13.5-54.3-201.7,103-137.2C334.5,28.5,300,0,250,0
			c-62.8,0-101.2,44.6-144,85c-39.6,46.2-41.9,108.8,14.5,159.5c-12.5,6.9-27.1,10.5-44.6,9.6c54.9,51.2,111.2,18.3,175,1
			c66.2-18,142.6-35,139.7,25.9C398.9,256.6,399.5,234.5,367.5,222.4z"/>
		
			<radialGradient id="SVGID_00000028318400462520740390000013308455333226083981_" cx="245.0014" cy="-187.0008" r="884.6723" gradientUnits="userSpaceOnUse">
			<stop  offset="0" style="stop-color:#FFFFFF"/>
			<stop  offset="0.5" style="stop-color:#33C1D1"/>
			<stop  offset="1" style="stop-color:#522E8F"/>
		</radialGradient>
		<path style="fill-rule:evenodd;clip-rule:evenodd;fill:url(#SVGID_00000028318400462520740390000013308455333226083981_);" d="
			M106,85c-39.6,46.2-41.9,108.8,14.5,159.5C84,98.1,238.8-29.5,368.3,60.5C334.5,28.5,300,0,250,0C187.2,0,148.8,44.6,106,85z"/>
	</g>
</g>
</svg>
